<?xml version="1.0" encoding="utf-8"?><svg xml:space="preserve" viewBox="0 0 100 100" y="0" x="0" xmlns="http://www.w3.org/2000/svg" id="圖層_1" version="1.1" width="200px" height="200px" xmlns:xlink="http://www.w3.org/1999/xlink" style="width:100%;height:100%;background-size:initial;background-repeat-y:initial;background-repeat-x:initial;background-position-y:initial;background-position-x:initial;background-origin:initial;background-image:initial;background-color:rgb(255, 255, 255);background-clip:initial;background-attachment:initial;animation-play-state:paused" ><g class="ldl-scale" style="transform-origin:50% 50%;transform:rotate(0deg) scale(0.8, 0.8);animation-play-state:paused" ><path stroke-linejoin="round" stroke-linecap="round" fill="#e0e0e0" stroke-miterlimit="10" stroke-width="3" stroke="#333" d="M57.3 19.7H42.1c2.7 6.2 5.3 12.9 7.6 20 2.4-7.1 5-13.8 7.6-20z" style="stroke:rgb(51, 51, 51);fill:rgb(224, 224, 224);animation-play-state:paused" ></path>
<g style="animation-play-state:paused" ><path stroke-linejoin="round" stroke-linecap="round" fill="#e0e0e0" stroke-miterlimit="10" stroke-width="3" stroke="#333" d="M27.8 79l-2.7 9.7h33.2c0-32.3-9.4-58.1-18.6-77.4-4.2 2.3-9 3.7-12.8 6.7-4.4 3.4-6.5 9.3-8.5 14.3-1.3 3.1-11.7 38.3-10.9 38.4L21.9 73l6.9-25 .6 4.2c.3 2.5.5 5 .5 7.5v3.8c0 5.3-.7 10.4-2.1 15.5z" style="stroke:rgb(51, 51, 51);fill:rgb(224, 224, 224);animation-play-state:paused" ></path>
<path stroke-miterlimit="10" stroke-width="3" stroke="#333" fill="none" stroke-linejoin="round" stroke-linecap="round" d="M34.1 14.4c9.2 22.9 14.8 47.5 16.8 74.3" style="stroke:rgb(51, 51, 51);animation-play-state:paused" ></path></g>
<g style="animation-play-state:paused" ><path stroke-linejoin="round" stroke-linecap="round" fill="#e0e0e0" stroke-miterlimit="10" stroke-width="3" stroke="#333" d="M70 52.3l.6-4.2 6.9 25 15-2.4c.9-.2-10.2-35.5-11.5-38.7-2-4.8-4.2-10.3-8.4-13.7-3.8-3.2-8.7-4.7-13-7C50.4 30.5 41 56.3 41 88.7h33.2L71.6 79c-1.4-5-2.1-10.2-2.1-15.4v-3.8c0-2.6.2-5.1.5-7.5z" style="stroke:rgb(51, 51, 51);fill:rgb(224, 224, 224);animation-play-state:paused" ></path>
<path stroke-miterlimit="10" stroke-width="3" stroke="#333" fill="none" stroke-linejoin="round" stroke-linecap="round" d="M64.9 14.2C55.7 37.1 50.1 62 48.1 88.7" style="stroke:rgb(51, 51, 51);animation-play-state:paused" ></path></g>
<g style="animation-play-state:paused" ><path d="M63.6 81.3l-7.2 2.6-4.9-16.6 5-1.8z" stroke-miterlimit="10" stroke-width="3" stroke="#333" fill="#666" stroke-linejoin="round" stroke-linecap="round" style="stroke:rgb(51, 51, 51);fill:rgb(102, 102, 102);animation-play-state:paused" ></path>
<path d="M28.3 64.9h42.8v7H28.3z" stroke-miterlimit="10" stroke-width="3" stroke="#333" fill="#666" stroke-linejoin="round" stroke-linecap="round" style="stroke:rgb(51, 51, 51);fill:rgb(102, 102, 102);animation-play-state:paused" ></path></g>
<metadata xmlns:d="https://loading.io/stock/" style="animation-play-state:paused" ><d:name style="animation-play-state:paused" >dobok</d:name>


<d:tags style="animation-play-state:paused" >dobok,taoist cloth,judo,judogi,karate,taekwondo</d:tags>


<d:license style="animation-play-state:paused" >by</d:license>


<d:slug style="animation-play-state:paused" >o3gk3u</d:slug></metadata></g><!-- generated by https://loading.io/ --></svg>