<?xml version="1.0" encoding="utf-8"?><svg xml:space="preserve" viewBox="0 0 100 100" y="0" x="0" xmlns="http://www.w3.org/2000/svg" id="圖層_1" version="1.1" width="200px" height="200px" data-darkreader-inline-bgimage="" data-darkreader-inline-bgcolor="" xmlns:xlink="http://www.w3.org/1999/xlink" style="width:100%;height:100%;background-size:initial;background-repeat-y:initial;background-repeat-x:initial;background-position-y:initial;background-position-x:initial;background-origin:initial;background-image:initial;background-color:rgb(251, 251, 251);background-clip:initial;background-attachment:initial;animation-play-state:paused" ><g class="ldl-scale" style="transform-origin:50% 50%;transform:rotate(0deg) scale(0.8, 0.8);animation-play-state:paused" ><path fill="#d1d1d1" d="M93.827 41.727c-.812-1.713-3.202-4.613-7.01-4.613-3.276 0-5.499 2.145-6.574 3.835-1.547-3.361-4.944-5.701-8.88-5.701H52.228c-.279 0-.554.008-.83.023a7.843 7.843 0 0 0-.571-.021c-4.131 0-7.129 3.263-7.129 7.759v2.407c0 .521.042 1.032.121 1.531a9.733 9.733 0 0 0-1.534-.948l-14.981-7.565c-1.068-.539-2.162-.813-3.251-.813-.98 0-1.884.221-2.686.615V34.91c0-1.654-.53-3.836-1.289-5.306-.996-1.93-3.4-4.184-6.894-4.184s-5.898 2.253-6.894 4.184C5.53 31.074 5 33.255 5 34.909v33.998a5.678 5.678 0 0 0 5.672 5.672h5.023a5.678 5.678 0 0 0 5.672-5.672v-.819h33.945c.919 0 1.687.002 1.824.003v-.003c.065.003.13.005.197.005l1.761.003 1.981-.003c.067 0 .132-.002.197-.005v.003c.137-.002.905-.003 1.824-.003h9.291c.919 0 1.687.002 1.824.003v-.003c.065.003.13.005.197.005l1.761.003 1.981-.003c.067 0 .132-.002.197-.005v.003l.287-.002v.818a5.678 5.678 0 0 0 5.672 5.672h5.022A5.678 5.678 0 0 0 95 68.907V46.946c.001-1.588-.493-3.784-1.173-5.219z" data-darkreader-inline-fill="" style="fill:rgb(40, 19, 0);animation-play-state:paused" ></path>
<path fill="#454545" d="M27.144 51.786h14.162c2.438 0 2.622-.914.41-2.032l-14.981-7.565c-2.213-1.117-4.024.147-4.024 2.81v1.946c-.001 2.662 1.994 4.841 4.433 4.841z" data-darkreader-inline-fill="" style="fill:rgb(255, 255, 255);animation-play-state:paused" ></path>
<path fill="#454545" d="M15.695 70.798c1.04 0 1.891-.851 1.891-1.891v-2.71c0-1.04.851-1.891 1.891-1.891h35.836c1.04 0 1.891.002 1.891.004s.851.004 1.891.004h.22c1.04 0 1.891-.002 1.891-.004s.851-.004 1.891-.004h9.291c1.04 0 1.891.002 1.891.004s.851.004 1.891.004h.22c1.04 0 1.891-.002 1.891-.004s.851-.004 1.891-.004h.354c1.04 0 1.891.851 1.891 1.891v2.71c0 1.04.851 1.891 1.891 1.891h5.022c1.04 0 1.891-.851 1.891-1.891V46.946c0-1.04-.364-2.66-.81-3.6 0 0-1.161-2.451-3.592-2.451-2.432 0-3.592 2.451-3.592 2.451-.445.94-.81 2.56-.81 3.6v7.15c0 1.04-.851 1.891-1.891 1.891H19.477a1.897 1.897 0 0 1-1.891-1.891V34.909c0-1.04-.39-2.647-.867-3.571 0 0-1.103-2.137-3.535-2.137s-3.535 2.137-3.535 2.137c-.477.924-.867 2.531-.867 3.571v33.998c0 1.04.851 1.891 1.891 1.891h5.022z" data-darkreader-inline-fill="" style="fill:rgb(255, 255, 255);animation-play-state:paused" ></path>
<path fill="#454545" d="M71.363 39.786H52.228c-.328 0-.617.014-.885.036-2.23-.283-3.865 1.252-3.865 3.945v2.407c0 3.294 2.696 5.991 5.991 5.991h19.135c.328 0 .617-.014.885-.036 2.23.283 3.865-1.252 3.865-3.945v-2.407c-.001-3.295-2.697-5.991-5.991-5.991z" data-darkreader-inline-fill="" style="fill:rgb(255, 255, 255);animation-play-state:paused" ></path>
<metadata xmlns:d="https://loading.io/stock/" style="animation-play-state:paused" ><d:name style="animation-play-state:paused" >hotel</d:name>
<d:tags style="animation-play-state:paused" >bed,sleep,rest,inn,resort,motel,hotel,map</d:tags>
<d:license style="animation-play-state:paused" >free</d:license>
<d:slug style="animation-play-state:paused" >9phnha</d:slug></metadata></g><!-- generated by https://loading.io/ --></svg>