<?xml version="1.0" encoding="utf-8"?><svg xml:space="preserve" viewBox="0 0 100 100" y="0" x="0" xmlns="http://www.w3.org/2000/svg" id="圖層_1" version="1.1" width="200px" height="200px" xmlns:xlink="http://www.w3.org/1999/xlink" style="width:100%;height:100%;background-size:initial;background-repeat-y:initial;background-repeat-x:initial;background-position-y:initial;background-position-x:initial;background-origin:initial;background-image:initial;background-color:rgb(255, 255, 255);background-clip:initial;background-attachment:initial;animation-play-state:paused" ><g class="ldl-scale" style="transform-origin:50% 50%;transform:rotate(0deg) scale(0.8, 0.8);animation-play-state:paused" ><path fill="#333" d="M50 32c6 0 12.5-4.6 12.8-14.5-8.5 3.9-17 3.9-25.5 0C37.5 27.5 44 32 50 32z" style="fill:rgb(51, 51, 51);animation-play-state:paused" ></path>
<path fill="#333" d="M73.7 19.4c-1.7-.6-3.5-1.2-5.3-1.7-.9-.2-1.7-.4-2.6-.6C65.6 28.9 57.8 35 50 35s-15.6-6.2-15.8-17.9c-.9.2-1.7.4-2.6.6-1.8.5-3.6 1.1-5.3 1.7-6.8 2.5-13 6.2-18.8 11.2L15 45.8l11.3-5.6v43h47.4v-43L85 45.8l7.5-15.2c-5.8-4.9-12-8.6-18.8-11.2z" style="fill:rgb(51, 51, 51);animation-play-state:paused" ></path>
<metadata xmlns:d="https://loading.io/stock/" style="animation-play-state:paused" ><d:name style="animation-play-state:paused" >t-shirt</d:name>


<d:tags style="animation-play-state:paused" >t-shirt,clothing,tee,wear,bodysuit,tunic,polo</d:tags>


<d:license style="animation-play-state:paused" >by</d:license>


<d:slug style="animation-play-state:paused" >xbbls8</d:slug></metadata></g><!-- generated by https://loading.io/ --></svg>