<?xml version="1.0" encoding="utf-8"?><svg xml:space="preserve" viewBox="0 0 100 100" y="0" x="0" xmlns="http://www.w3.org/2000/svg" id="圖層_1" version="1.1" width="200px" height="200px" xmlns:xlink="http://www.w3.org/1999/xlink" style="width:100%;height:100%;background-size:initial;background-repeat-y:initial;background-repeat-x:initial;background-position-y:initial;background-position-x:initial;background-origin:initial;background-image:initial;background-color:rgb(255, 255, 255);background-clip:initial;background-attachment:initial;animation-play-state:paused" ><g class="ldl-scale" style="transform-origin:50% 50%;transform:rotate(0deg) scale(0.8, 0.8);animation-play-state:paused" ><path d="M41.2 10h38.1v16.7H41.2z" stroke-miterlimit="10" stroke-width="3" stroke="#333" fill="#666" stroke-linejoin="round" stroke-linecap="round" style="stroke:rgb(51, 51, 51);fill:rgb(102, 102, 102);animation-play-state:paused" ></path>
<path stroke-linejoin="round" stroke-linecap="round" fill="#e0e0e0" stroke-miterlimit="10" stroke-width="3" stroke="#333" d="M79.3 49.3V26.7H41.2v20.4l-5.3 3.5-6.7 4.5c-1 .7-1.9 1.4-2.8 2.3 10.2 7.1 17 18.8 17.5 32.1 2.2-.5 4.4-1.4 6.4-2.7l3.5-2.3 10.9-7.3c-.8-2.3-1.3-4.7-1.3-7.2 0-9.9 6.7-18.2 15.9-20.7z" style="stroke:rgb(51, 51, 51);fill:rgb(224, 224, 224);animation-play-state:paused" ></path>
<path fill="#abbd81" stroke-miterlimit="10" stroke-width="3" stroke="#333" d="M79.3 54.5v-5.1C70.1 51.8 63.4 60.1 63.4 70c0 2.5.5 5 1.3 7.2l3.7-2.4c6.8-4.6 10.9-12.2 10.9-20.3z" style="stroke:rgb(51, 51, 51);fill:rgb(171, 189, 129);animation-play-state:paused" ></path>
<path fill="#abbd81" stroke-miterlimit="10" stroke-width="3" stroke="#333" d="M26.5 57.4c-6.4 6.3-7.7 16.4-2.5 24.1v0c4.5 6.8 12.6 9.7 20 8-.5-13.3-7.3-25-17.5-32.1z" style="stroke:rgb(51, 51, 51);fill:rgb(171, 189, 129);animation-play-state:paused" ></path>
<metadata xmlns:d="https://loading.io/stock/" style="animation-play-state:paused" ><d:name style="animation-play-state:paused" >socks</d:name>


<d:tags style="animation-play-state:paused" >socks,stockings,breeches,wear</d:tags>


<d:license style="animation-play-state:paused" >by</d:license>


<d:slug style="animation-play-state:paused" >6ntjkf</d:slug></metadata></g><!-- generated by https://loading.io/ --></svg>