<?xml version="1.0" encoding="utf-8"?><svg xml:space="preserve" viewBox="0 0 100 100" y="0" x="0" xmlns="http://www.w3.org/2000/svg" id="圖層_1" version="1.1" width="200px" height="200px" xmlns:xlink="http://www.w3.org/1999/xlink" style="width:100%;height:100%;background-size:initial;background-repeat-y:initial;background-repeat-x:initial;background-position-y:initial;background-position-x:initial;background-origin:initial;background-image:initial;background-color:rgb(255, 255, 255);background-clip:initial;background-attachment:initial;animation-play-state:paused" ><g class="ldl-scale" style="transform-origin:50% 50%;transform:rotate(0deg) scale(0.8, 0.8);animation-play-state:paused" ><path stroke-miterlimit="10" stroke-linejoin="round" stroke-linecap="round" stroke-width="3" stroke="#333" fill="#a0c8d7" d="M61.6 92.5l17.3-.3L74 8.5v-1H26v1l-4.9 83.7 17.3.3 8.1-54.9c.2-1.7 1.7-3 3.5-3h0c1.7 0 3.2 1.3 3.5 3l8.1 54.9z" style="stroke:rgb(51, 51, 51);fill:rgb(160, 200, 215);animation-play-state:paused" ></path>
<path stroke-miterlimit="10" stroke-linejoin="round" stroke-linecap="round" stroke-width="3" stroke="#333" fill="#a0c8d7" d="M53 35.3h-4.3c-2 0-3.7-1.6-3.7-3.7V12.1h8v23.2z" style="stroke:rgb(51, 51, 51);fill:rgb(160, 200, 215);animation-play-state:paused" ></path>
<path d="M26 7.5v1l-.4 8.2h48.8L74 8.5v-1z" stroke-miterlimit="10" stroke-width="3" stroke="#333" fill="#77a4bd" stroke-linejoin="round" stroke-linecap="round" style="stroke:rgb(51, 51, 51);fill:rgb(119, 164, 189);animation-play-state:paused" ></path>
<path stroke-miterlimit="10" stroke-width="3" stroke="#333" fill="none" stroke-linejoin="round" stroke-linecap="round" d="M38.9 18.3c0 6.1-3.8 9.2-12.6 9.2" style="stroke:rgb(51, 51, 51);animation-play-state:paused" ></path>
<path stroke-miterlimit="10" stroke-width="3" stroke="#333" fill="none" stroke-linejoin="round" stroke-linecap="round" d="M61.1 18.3c0 6.1 3.8 9.2 12.6 9.2" style="stroke:rgb(51, 51, 51);animation-play-state:paused" ></path>
<metadata xmlns:d="https://loading.io/stock/" style="animation-play-state:paused" ><d:name style="animation-play-state:paused" >pants</d:name>


<d:tags style="animation-play-state:paused" >pants,trousers,slacks,clothing,jeans,straights,crops</d:tags>


<d:license style="animation-play-state:paused" >by</d:license>


<d:slug style="animation-play-state:paused" >h4142g</d:slug></metadata></g><!-- generated by https://loading.io/ --></svg>