<?xml version="1.0" encoding="utf-8"?><svg xml:space="preserve" viewBox="0 0 100 100" y="0" x="0" xmlns="http://www.w3.org/2000/svg" id="圖層_1" version="1.1" width="200px" height="200px" xmlns:xlink="http://www.w3.org/1999/xlink" style="width:100%;height:100%;background-size:initial;background-repeat-y:initial;background-repeat-x:initial;background-position-y:initial;background-position-x:initial;background-origin:initial;background-image:initial;background-color:rgb(255, 255, 255);background-clip:initial;background-attachment:initial;animation-play-state:paused" ><g class="ldl-scale" style="transform-origin:50% 50%;transform:rotate(0deg) scale(0.8, 0.8);animation-play-state:paused" ><path d="M57.4 20.4H42.6l6.8 19.9z" stroke-miterlimit="10" stroke-width="3" stroke="#333" fill="#666" stroke-linejoin="round" stroke-linecap="round" style="stroke:rgb(51, 51, 51);fill:rgb(102, 102, 102);animation-play-state:paused" ></path>
<path d="M37.6 20.4l5.4-2.6h13.7l5.4 2.6-.5 2.7-23.5.1z" stroke-miterlimit="10" stroke-linejoin="round" stroke-linecap="round" stroke-width="3" stroke="#333" fill="#f8b26a" style="stroke:rgb(51, 51, 51);fill:rgb(248, 178, 106);animation-play-state:paused" ></path>
<path d="M89.2 71.6L73.9 28.2l-9.3-3.6h0l-8.3-4.2-10 25v36.8h24.5L70 45.3l7.8 30.5z" stroke-linejoin="round" stroke-linecap="round" fill="#f47e60" stroke-miterlimit="10" stroke-width="3" stroke="#333" style="stroke:rgb(51, 51, 51);fill:rgb(244, 126, 96);animation-play-state:paused" ></path>
<path d="M42.8 54.9l14.7-7.8 4.6-26.7-5.4-2.6z" stroke-miterlimit="10" stroke-linejoin="round" stroke-linecap="round" stroke-width="3" stroke="#333" fill="#f8b26a" style="stroke:rgb(51, 51, 51);fill:rgb(248, 178, 106);animation-play-state:paused" ></path>
<path d="M55.6 82.2l-.2-27.3-11.7-34.5-8.3 4.2h0l-9.3 3.6-15.3 43.4 11.4 4.2L30 45.3l-.8 36.9z" stroke-linejoin="round" stroke-linecap="round" fill="#f47e60" stroke-miterlimit="10" stroke-width="3" stroke="#333" style="stroke:rgb(51, 51, 51);fill:rgb(244, 126, 96);animation-play-state:paused" ></path>
<path d="M55.4 54.9l-13.2-7.8-4.6-26.7 5.4-2.6z" stroke-miterlimit="10" stroke-linejoin="round" stroke-linecap="round" stroke-width="3" stroke="#333" fill="#f8b26a" style="stroke:rgb(51, 51, 51);fill:rgb(248, 178, 106);animation-play-state:paused" ></path>
<path d="M92.5 74.5l-14.8 5.9-2.3-9.3 13.8-4.9z" stroke-linejoin="round" stroke-linecap="round" fill="#e0e0e0" stroke-miterlimit="10" stroke-width="3" stroke="#333" style="stroke:rgb(51, 51, 51);fill:rgb(224, 224, 224);animation-play-state:paused" ></path>
<path d="M7.5 74.5l14.8 5.9 2.3-9.3-13.8-4.9z" stroke-linejoin="round" stroke-linecap="round" fill="#e0e0e0" stroke-miterlimit="10" stroke-width="3" stroke="#333" style="stroke:rgb(51, 51, 51);fill:rgb(224, 224, 224);animation-play-state:paused" ></path>
<circle stroke-linejoin="round" stroke-linecap="round" fill="#e0e0e0" stroke-miterlimit="10" stroke-width="3" stroke="#333" r="2.9" cy="60.5" cx="47.2" style="stroke:rgb(51, 51, 51);fill:rgb(224, 224, 224);animation-play-state:paused" ></circle>
<circle stroke-linejoin="round" stroke-linecap="round" fill="#e0e0e0" stroke-miterlimit="10" stroke-width="3" stroke="#333" r="2.9" cy="73" cx="47.2" style="stroke:rgb(51, 51, 51);fill:rgb(224, 224, 224);animation-play-state:paused" ></circle>
<metadata xmlns:d="https://loading.io/stock/" style="animation-play-state:paused" ><d:name style="animation-play-state:paused" >coat</d:name>


<d:tags style="animation-play-state:paused" >coat,overcoat,topcoat,windbreaker,paletot,jacket</d:tags>


<d:license style="animation-play-state:paused" >by</d:license>


<d:slug style="animation-play-state:paused" >lxs1e4</d:slug></metadata></g><!-- generated by https://loading.io/ --></svg>