<?xml version="1.0" encoding="utf-8"?><svg xml:space="preserve" viewBox="0 0 100 100" y="0px" x="0px" xmlns:xlink="http://www.w3.org/1999/xlink" xmlns="http://www.w3.org/2000/svg" id="圖層_1" version="1.1" width="200px" height="200px" style="width:100%;height:100%;background-size:initial;background-repeat-y:initial;background-repeat-x:initial;background-position-y:initial;background-position-x:initial;background-origin:initial;background-image:initial;background-color:rgb(255, 255, 255);background-clip:initial;background-attachment:initial;animation-play-state:paused" ><g class="ldl-scale" style="transform-origin:50% 50%;transform:rotate(0deg) scale(0.8, 0.8);animation-play-state:paused" ><g style="animation-play-state:paused" ><line y2="48.93" x2="10.54" y1="25.15" x1="49.81" stroke-miterlimit="10" stroke-linejoin="round" stroke-linecap="round" stroke-width="3" stroke="#333333" fill="none" style="stroke:rgb(51, 51, 51);animation-play-state:paused" ></line>
<line y2="48.93" x2="89.46" y1="25.15" x1="49.81" stroke-miterlimit="10" stroke-linejoin="round" stroke-linecap="round" stroke-width="3" stroke="#333333" fill="none" style="stroke:rgb(51, 51, 51);animation-play-state:paused" ></line>
<path d="M56.47,11.67c0-3.68-2.98-6.67-6.67-6.67s-6.67,2.98-6.67,6.67s2.98,6.67,6.67,6.67v6.82" stroke-miterlimit="10" stroke-linejoin="round" stroke-linecap="round" stroke-width="3" stroke="#333333" fill="none" style="stroke:rgb(51, 51, 51);animation-play-state:paused" ></path>
<line y2="46.58" x2="62.87" y1="46.58" x1="15.01" stroke-miterlimit="10" stroke-linejoin="round" stroke-linecap="round" stroke-width="3" stroke="#333333" fill="none" style="stroke:rgb(51, 51, 51);animation-play-state:paused" ></line></g>
<path d="M65.35,83.42H38.67c-1.94,0-3.51-1.57-3.51-3.51V44.72c0-2.53,2.05-4.58,4.58-4.58h24.04c2.81,0,5.08,2.28,5.08,5.08v34.7 C68.86,81.85,67.29,83.42,65.35,83.42z" stroke-miterlimit="10" stroke-linejoin="round" stroke-linecap="round" stroke-width="3.5" stroke="#333333" fill="#A0C8D7" style="stroke:rgb(51, 51, 51);fill:rgb(160, 200, 215);animation-play-state:paused" ></path>
<path d="M62.87,45.97v45.51c0,1.94-1.57,3.51-3.51,3.51H32.68c-1.94,0-3.51-1.57-3.51-3.51V48.09c0-4.4,3.56-7.96,7.96-7.96h25.74" stroke-miterlimit="10" stroke-linejoin="round" stroke-linecap="round" stroke-width="3.5" stroke="#333333" fill="#A0C8D7" style="stroke:rgb(51, 51, 51);fill:rgb(160, 200, 215);animation-play-state:paused" ></path>
<line y2="85.31" x2="55.21" y1="85.31" x1="35.15" stroke-miterlimit="10" stroke-linejoin="round" stroke-linecap="round" stroke-width="3.5" stroke="#F5E6C8" fill="none" style="stroke:rgb(245, 230, 200);animation-play-state:paused" ></line>
<line y2="77.32" x2="55.21" y1="77.32" x1="35.15" stroke-miterlimit="10" stroke-linejoin="round" stroke-linecap="round" stroke-width="3.5" stroke="#F5E6C8" fill="none" style="stroke:rgb(245, 230, 200);animation-play-state:paused" ></line>
<line y2="46.58" x2="84.99" y1="46.58" x1="62.87" stroke-miterlimit="10" stroke-linejoin="round" stroke-linecap="round" stroke-width="3" stroke="#333333" fill="none" style="stroke:rgb(51, 51, 51);animation-play-state:paused" ></line>
<metadata xmlns:d="https://loading.io/stock/" style="animation-play-state:paused" ><d:name style="animation-play-state:paused" >bathroom</d:name>


<d:tags style="animation-play-state:paused" >bathroom,bath towel,towel rack,clean,wash,hanger</d:tags>


<d:license style="animation-play-state:paused" >by</d:license>


<d:slug style="animation-play-state:paused" >88gug</d:slug></metadata></g><!-- generated by https://loading.io/ --></svg>